<svg xmlns="http://www.w3.org/2000/svg" xmlns:xlink="http://www.w3.org/1999/xlink" width="48" height="11" version="1.1" viewBox="0 0 48 11"><title>Group 6</title><desc>Created with Sketch.</desc><g id="Page-1" fill="none" fill-rule="evenodd" stroke="none" stroke-width="1"><g id="19-Separator" stroke="#063855" transform="translate(-129.000000, -231.000000)"><g id="Controls/Settings" transform="translate(80.000000, 0.000000)"><g id="Content" transform="translate(0.000000, 64.000000)"><g id="Group" transform="translate(24.000000, 56.000000)"><g id="Group-2" transform="translate(0.000000, 80.000000)"><g id="Group-6" transform="translate(25.000000, 31.000000)"><path id="Path-2" d="M0,7 L5.31671843,4.34164079 L5.31671843,4.34164079 C7.00588337,3.49705831 8.99411663,3.49705831 10.6832816,4.34164079 L13.3167184,5.65835921 L13.3167184,5.65835921 C15.0058834,6.50294169 16.9941166,6.50294169 18.6832816,5.65835921 L21.3167184,4.34164079 L21.3167184,4.34164079 C23.0058834,3.49705831 24.9941166,3.49705831 26.6832816,4.34164079 L29.3167184,5.65835921 L29.3167184,5.65835921 C31.0058834,6.50294169 32.9941166,6.50294169 34.6832816,5.65835921 L37.3167184,4.34164079 L37.3167184,4.34164079 C39.0058834,3.49705831 40.9941166,3.49705831 42.6832816,4.34164079 L48,7"/><path id="Path-2" d="M0,10 L5.31671843,7.34164079 L5.31671843,7.34164079 C7.00588337,6.49705831 8.99411663,6.49705831 10.6832816,7.34164079 L13.3167184,8.65835921 L13.3167184,8.65835921 C15.0058834,9.50294169 16.9941166,9.50294169 18.6832816,8.65835921 L21.3167184,7.34164079 L21.3167184,7.34164079 C23.0058834,6.49705831 24.9941166,6.49705831 26.6832816,7.34164079 L29.3167184,8.65835921 L29.3167184,8.65835921 C31.0058834,9.50294169 32.9941166,9.50294169 34.6832816,8.65835921 L37.3167184,7.34164079 L37.3167184,7.34164079 C39.0058834,6.49705831 40.9941166,6.49705831 42.6832816,7.34164079 L48,10"/><path id="Path-2" d="M0,4 L5.31671843,1.34164079 L5.31671843,1.34164079 C7.00588337,0.497058314 8.99411663,0.497058314 10.6832816,1.34164079 L13.3167184,2.65835921 L13.3167184,2.65835921 C15.0058834,3.50294169 16.9941166,3.50294169 18.6832816,2.65835921 L21.3167184,1.34164079 L21.3167184,1.34164079 C23.0058834,0.497058314 24.9941166,0.497058314 26.6832816,1.34164079 L29.3167184,2.65835921 L29.3167184,2.65835921 C31.0058834,3.50294169 32.9941166,3.50294169 34.6832816,2.65835921 L37.3167184,1.34164079 L37.3167184,1.34164079 C39.0058834,0.497058314 40.9941166,0.497058314 42.6832816,1.34164079 L48,4"/></g></g></g></g></g></g></g></svg>